<svg xmlns="http://www.w3.org/2000/svg" width="173.52" height="160.226" viewBox="0 0 173.52 160.226"><g transform="translate(-0.024 -0.066)"><g transform="translate(0.024 0.066)"><path d="M80.992,105.638c.188-.23.38-.465.563-.7s.29-.367.427-.568a3.474,3.474,0,0,0,.213-.32,1.024,1.024,0,0,1,.1-.128l1.165-1.3-.512-.512L81.7,103.235l-.047.047a1.941,1.941,0,0,0-.248.269,1.947,1.947,0,0,1-.179.222l-.457.5c-.2.213-.4.427-.606.636a18.091,18.091,0,0,0-1.28,1.421,9.483,9.483,0,0,0-.811,1.229c-.239.427-.427.892-.619,1.28a1.805,1.805,0,0,1-.525.781,2.155,2.155,0,0,1-.922.184,5.48,5.48,0,0,1-2.313-.427,6.619,6.619,0,0,1-1.95-1.387A10.959,10.959,0,0,1,70.237,106c-.107-.188-.209-.376-.307-.559l-.085-.162c-.068-.141-.141-.282-.235-.452a6.661,6.661,0,0,0-.913-1.28c-.653-.73-.8-1-.7-1.673a10.366,10.366,0,0,1,.725-2.334c.64-1.5,1.413-3.077,2.373-4.827.23-.427.465-.854.7-1.28.649-1.165,1.319-2.373,1.9-3.619.815-1.733,1.5-3.5,2.134-5.121,1.331-3.555,2.509-7.089,3.6-10.409.58-1.809,1.174-3.568,1.728-5.2.188-.58.4-1.157.615-1.707l.307-.854c.316-.854.632-1.707.973-2.561a91.7,91.7,0,0,1,4.511-9.926c.811-1.545,1.733-3.128,2.74-4.694a31.977,31.977,0,0,1,3.252-4.349l.2-.209-.512-.542-.226.226a32.861,32.861,0,0,0-3.465,4.344c-1.058,1.566-2.036,3.15-2.906,4.694a94.231,94.231,0,0,0-4.814,9.926c-.371.854-.7,1.707-1.037,2.561-.1.273-.213.551-.32.824-.226.572-.457,1.165-.661,1.75-.555,1.549-1.212,3.376-1.831,5.185-.964,2.748-2.07,5.885-3.265,8.962-6.244.166-14.275.4-22.426.734-3.521.149-7.613.333-11.6.653a79.408,79.408,0,0,0-11.552,1.673A48.053,48.053,0,0,0,18.121,89.8a31.913,31.913,0,0,0-9.145,7.421A36.654,36.654,0,0,0,2.7,107.192a23.757,23.757,0,0,0-.956,2.829c-.273,1.007-.5,1.942-.7,2.859A49.2,49.2,0,0,0,.2,118.7a39.262,39.262,0,0,0,.67,11.779l.35,1.434c.081.307.175.61.265.918l.145.5a28.762,28.762,0,0,0,1.084,2.783c.7,1.6,1.511,3.282,2.535,5.275.926,1.784,1.869,3.508,2.812,5.121.811,1.387,1.9,3.2,3.158,4.959.542.764,1.182,1.57,1.844,2.334l1.891,2.211c1.058,1.216,2.467,2.8,3.973,4.31a27.348,27.348,0,0,0,4.6,3.841,11.484,11.484,0,0,0,2.859,1.336,5.855,5.855,0,0,0,1.63.243H28.1a4.515,4.515,0,0,0,1.788-.405,5.974,5.974,0,0,0,2.479-2.343,14.284,14.284,0,0,0,1.361-2.778c.235-.636.427-1.28.615-1.92.09-.3.175-.6.269-.9s.184-.563.282-.854c.06-.162.115-.32.166-.465l.179-.448c.111-.286.222-.568.35-.854a39.112,39.112,0,0,1,6.056-9.5,53.44,53.44,0,0,1,8.16-7.81l6.013-3.5,2.275-1.357c.213-.132.452-.265.721-.427l.384-.209c.888-.486,1.805-.99,2.7-1.511,1.238-.725,2.168-1.323,3.026-1.937a16.867,16.867,0,0,0,1.451-1.157,6.576,6.576,0,0,0,1.31-1.553,13.776,13.776,0,0,0,1.182-3.559,27.088,27.088,0,0,0,.482-3.581l.034-.312-1.63-.111-.03.3a7.494,7.494,0,0,1-1.238,3.448,5.608,5.608,0,0,1-2.014,1.805l-.918.487c-.725.393-1.306.73-1.827,1.058a15.591,15.591,0,0,0-1.707,1.28c-.529.405-1.1.854-1.622,1.28a16.831,16.831,0,0,1-1.622,1.186l-.9.61c-.815.559-1.66,1.135-2.514,1.652a12.538,12.538,0,0,1-3.568,1.652,9.44,9.44,0,0,1-3.9,0,11.151,11.151,0,0,1-3.679-1.46l-.256-.154-.4.623.252.166A11.232,11.232,0,0,0,50,134.048a13.8,13.8,0,0,0,3.948-1.664c1.067-.61,2.108-1.28,3.12-1.929l.4-.26a17.925,17.925,0,0,0,1.758-1.208c.546-.427,1.063-.824,1.643-1.25a18.931,18.931,0,0,1,3.38-2.1l.918-.461a6.952,6.952,0,0,0,.986-.6,4.5,4.5,0,0,0,.388-.3,6.482,6.482,0,0,1-.354.751,4.873,4.873,0,0,1-.973,1.1,13.513,13.513,0,0,1-1.3,1.011A32.624,32.624,0,0,1,61,128.935c-.854.491-1.707.947-2.62,1.43l-.521.277a7.794,7.794,0,0,0-.725.427l-8.416,4.737-.06.038a50.268,50.268,0,0,0-4.511,3.841,55.907,55.907,0,0,0-4.063,4.268,39.744,39.744,0,0,0-6.359,10.016c-.137.307-.26.623-.384.939l-.179.465c-.055.158-.111.32-.171.478-.111.312-.218.623-.312.939s-.188.64-.277.947c-.179.615-.346,1.2-.559,1.784a12.8,12.8,0,0,1-1.131,2.428,4.076,4.076,0,0,1-1.635,1.63,2.987,2.987,0,0,1-2.134.077,9.816,9.816,0,0,1-2.381-1.1A25.989,25.989,0,0,1,20.272,159c-1.481-1.46-2.872-2.987-3.922-4.182l-1.908-2.181c-.661-.751-1.225-1.447-1.767-2.2a85.741,85.741,0,0,1-5.911-9.815c-1.02-1.946-1.822-3.585-2.526-5.16a26.032,26.032,0,0,1-1.033-2.6l-.2-.521c-.085-.282-.171-.568-.252-.854L2.4,130.113a37.8,37.8,0,0,1-.717-11.292,46.658,46.658,0,0,1,.811-5.642,31.619,31.619,0,0,1,1.536-5.454,35.165,35.165,0,0,1,5.975-9.619,30.893,30.893,0,0,1,8.71-7.174,46.9,46.9,0,0,1,10.7-4,77.856,77.856,0,0,1,11.369-1.745c3.96-.358,7.878-.568,11.557-.755,8.023-.4,15.905-.7,22.076-.926l-.2.516c-.64,1.6-1.349,3.3-2.181,4.959-.576,1.165-1.225,2.27-1.912,3.444l-.755,1.28a52.574,52.574,0,0,0-2.526,5l-.026.06A11.673,11.673,0,0,0,66,101.584a3.675,3.675,0,0,0-.026.811v.119a3.312,3.312,0,0,0,.26.956,4.6,4.6,0,0,0,.828,1.191l.141.162a4.95,4.95,0,0,1,.7.939c.068.107.145.252.222.4l.1.188c.119.213.243.427.376.632a12.107,12.107,0,0,0,1.869,2.313,8.4,8.4,0,0,0,2.561,1.664,6.636,6.636,0,0,0,2.428.427,4.683,4.683,0,0,0,.644-.03,3.359,3.359,0,0,0,1.707-.538l.218-.175.141-.154a1.908,1.908,0,0,0,.23-.32l.055-.094a5.18,5.18,0,0,0,.324-.721c.175-.461.324-.854.5-1.212a8.813,8.813,0,0,1,.64-1.114,17.337,17.337,0,0,1,1.075-1.387Z" transform="translate(-0.024 -25.388)" fill="#085553"/><path d="M277.348,58.564A51.983,51.983,0,0,0,274.437,46.8a35.976,35.976,0,0,0-6.116-10.532,47.8,47.8,0,0,0-9.056-8.108,85.308,85.308,0,0,0-10.379-6.18c-3.435-1.737-7.024-3.359-10.981-4.946-3.094-1.238-6.282-2.386-9.363-3.491l-1.878-.679c-1.792-.653-3.7-1.357-5.548-2.112-1.5-.61-3.465-1.434-5.386-2.407A29.728,29.728,0,0,1,210.8,5.283c-.657-.508-1.314-1.063-1.955-1.6l-.324-.273c-.67-.572-1.28-1.169-1.972-1.8l-.4-.38a10.719,10.719,0,0,0-1.024-.854l-.068-.043a1.455,1.455,0,0,0-.512-.243.994.994,0,0,0-.427,0,.879.879,0,0,0-.559.371.964.964,0,0,0-.171.529v.068a2.876,2.876,0,0,0,.132.819l.034.128c.277.943.632,1.827.977,2.68l.077.2c.768,1.873,1.588,3.76,2.36,5.518l.606,1.366c.068.154.149.307.226.461l.115.184a4.877,4.877,0,0,0,.388.691,10.886,10.886,0,0,0,1.98,2.424,13.187,13.187,0,0,0,5.352,3.009l.3.085.192-.717-.277-.09a12.069,12.069,0,0,1-2.6-1.238,12.256,12.256,0,0,1-2.253-1.78,10.012,10.012,0,0,1-1.707-2.275,4.986,4.986,0,0,1-.312-.61l-.111-.243c-.064-.137-.124-.273-.184-.427l-.674-1.707c-.691-1.707-1.408-3.491-2.066-5.245l-.038-.1c-.2-.529-.4-1.067-.572-1.6l.115.119c.636.636,1.28,1.28,1.984,1.916s1.481,1.28,2.309,1.967A31.828,31.828,0,0,0,214.9,9.913c1.967,1.037,3.965,1.912,5.488,2.561,1.869.8,3.785,1.541,5.591,2.236l5.616,2.053,2.778,1.093,2.77,1.093c4.11,1.643,7.66,3.218,10.857,4.814a83.041,83.041,0,0,1,10.217,5.928,45.736,45.736,0,0,1,8.8,7.682,34.294,34.294,0,0,1,5.9,10.037,50.681,50.681,0,0,1,2.919,11.382,67.95,67.95,0,0,1,.559,11.8c-.055,1.733-.2,3.606-.482,5.894-.171,1.4-.427,2.825-.691,4.2-.1.551-.2,1.1-.3,1.652a19.822,19.822,0,0,1-.708,2.8,6.828,6.828,0,0,1-1.28,2.4,3.077,3.077,0,0,1-2.164,1.063h0a6.858,6.858,0,0,1-2.608-.683,25.179,25.179,0,0,1-4.925-3.124,46.007,46.007,0,0,1-4.4-3.935,45.93,45.93,0,0,1-3.807-4.524c-1.105-1.46-2.24-3.047-3.465-4.844-2.411-3.551-4.477-6.858-6.316-10.114l-.149-.269-.657.367.149.269c1.814,3.3,3.841,6.653,6.231,10.242,1.212,1.822,2.334,3.414,3.414,4.921a47.259,47.259,0,0,0,3.841,4.664,46.63,46.63,0,0,0,4.464,4.063,27,27,0,0,0,5.121,3.324,7.844,7.844,0,0,0,3.124.828,4.327,4.327,0,0,0,3.064-1.438,8.288,8.288,0,0,0,1.583-2.808,22,22,0,0,0,.794-2.987l.559-2.932c.166-.8.29-1.613.405-2.4l.094-.6c.3-2.33.469-4.242.542-6.013a69.036,69.036,0,0,0-.482-12.056Z" transform="translate(-116.601 -0.066)" fill="#085553"/><path d="M90.288,196.171a3.252,3.252,0,0,0-1.186-.32,4.936,4.936,0,0,0-.7,0H87.044c-.666,0-1.331,0-2-.03-1.485-.043-2.787-.107-3.977-.209a29.486,29.486,0,0,1-3.841-.538,7.635,7.635,0,0,1-1.707-.61,5.42,5.42,0,0,1-1.378-1.024A10.886,10.886,0,0,1,73,191.929a6.141,6.141,0,0,0-.691-.883,2.769,2.769,0,0,0-.6-.469,4.016,4.016,0,0,0-.559-.277,12.211,12.211,0,0,0-2.1-.627c-.619-.137-1.28-.256-2.053-.371a37.673,37.673,0,0,0-4.135-.363,21.763,21.763,0,0,0-4.208.35,13.326,13.326,0,0,0-2.1.572,9.584,9.584,0,0,0-1.024.427c-.119.06-.243.128-.363.2l-.141.085a2.873,2.873,0,0,0-.316.209l-.239.2a34.638,34.638,0,0,0-2.889,2.987c-.23.269-.452.542-.679.854l-.043.06a3.281,3.281,0,0,0-.341.555,1.442,1.442,0,0,0-.119.427,1.024,1.024,0,0,0,.465.952,1.041,1.041,0,0,0,.529.162h0a1.11,1.11,0,0,0,.248,0,1.238,1.238,0,0,0,.218-.064l.132-.06c.06-.03.107-.051.192-.1.384-.243.691-.474.986-.7s.452-.341.7-.5a10.588,10.588,0,0,1,3.295-1.626,3.261,3.261,0,0,1,1.553-.03,1.707,1.707,0,0,1,.627.277l.265.243a1.531,1.531,0,0,1,.192.209l.073.09a20.457,20.457,0,0,1,2.057,3.243c.606,1.135,1.186,2.334,1.707,3.559.23.533.516,1.2.7,1.784a4.758,4.758,0,0,1,.124,1.707,8.71,8.71,0,0,1-.32,1.809,3.939,3.939,0,0,1-.721,1.477A1,1,0,0,1,63,208.6a1.741,1.741,0,0,1-.666,0,6.375,6.375,0,0,1-1.664-.653c-.273-.141-.542-.29-.811-.427s-.632-.35-.964-.521c-.5-.26-1.028-.589-1.541-.9l-.137-.085c-1.135-.7-2.262-1.425-3.384-2.134l-4.221-2.757a2,2,0,0,0-1.434-.3,5.791,5.791,0,0,0-1.882.819l-.179.107a35.055,35.055,0,0,0-3.337,2.386,16.1,16.1,0,0,0-2.885,3.013,9.7,9.7,0,0,0-1.707,3.879,13.507,13.507,0,0,0-.158,4.174,18.351,18.351,0,0,0,2.919,7.613,28.474,28.474,0,0,0,5.352,6.141l.239.2.474-.576-.222-.2a27.739,27.739,0,0,1-5.087-6.047,17.463,17.463,0,0,1-2.65-7.3,10.246,10.246,0,0,1,1.771-7.255,21.026,21.026,0,0,1,5.975-4.972,5.3,5.3,0,0,1,1.592-.721.619.619,0,0,1,.491.115l4.169,2.8c1.122.747,2.245,1.489,3.38,2.215l.226.145c.491.307.994.627,1.553.93.286.149.576.316.854.487s.58.337.854.5A7.912,7.912,0,0,0,62,210.1a3.175,3.175,0,0,0,1.331,0,2.56,2.56,0,0,0,1.233-.764,5.612,5.612,0,0,0,1.084-2.07,10.277,10.277,0,0,0,.427-2.134,6.551,6.551,0,0,0-.162-2.292,16.137,16.137,0,0,0-.7-1.852l-.047-.119c-.538-1.28-1.122-2.522-1.737-3.709a22.105,22.105,0,0,0-2.2-3.581l-.081-.094a2.881,2.881,0,0,0-.3-.346l-.2-.2-.277-.226a2.731,2.731,0,0,0-.589-.35,3.742,3.742,0,0,0-.551-.2h-.06a5.087,5.087,0,0,0-2.437-.021c-.192.043-.384.094-.572.154l.043-.026a1.708,1.708,0,0,1,.235-.124,7.593,7.593,0,0,1,.811-.346,13.4,13.4,0,0,1,1.788-.474,18.916,18.916,0,0,1,3.8-.341,34.572,34.572,0,0,1,3.888.316c.717.09,1.349.188,1.92.3a10.994,10.994,0,0,1,1.775.482,2.56,2.56,0,0,1,.367.175.8.8,0,0,1,.179.137,5.24,5.24,0,0,1,.516.644,11.817,11.817,0,0,0,1.366,1.707,7.255,7.255,0,0,0,1.865,1.323,9.658,9.658,0,0,0,2.108.713,25.982,25.982,0,0,0,4.131.427c1.225.051,2.561.068,4.071.047.674,0,1.353-.026,2.027-.051l1.007-.043h.393a5.185,5.185,0,0,1,.563,0c.474,0,1.02.154,1.148.512a.926.926,0,0,1,.051.3v.491a5.868,5.868,0,0,1-.055.913c-.064.388-.175.465-.222.487a1.46,1.46,0,0,1-.683-.043,2.906,2.906,0,0,1-1.127-.61q-.218-.166-.448-.32l-.248-.162-.427.589.235.184c.141.111.273.226.427.341l.358.3a2.911,2.911,0,0,0,1.028.551,3.573,3.573,0,0,0,.555.119,1.361,1.361,0,0,0,.743-.077,1.191,1.191,0,0,0,.6-.551,2.172,2.172,0,0,0,.222-.6,5.974,5.974,0,0,0,.132-1.092l.009-.568a2.074,2.074,0,0,0-.085-.661,1.775,1.775,0,0,0-.939-1.093Z" transform="translate(-21.76 -108.333)" fill="#085553"/><path d="M115.765,203.578l-.3-.448-.248.145a3.06,3.06,0,0,0-1.28,1.737,1.8,1.8,0,0,0,.068,1.28,2.134,2.134,0,0,0,.854.9,3.508,3.508,0,0,0,1.775.465,2.32,2.32,0,0,0,.384-.021,2.484,2.484,0,0,0,1.131-.376,2.561,2.561,0,0,0,.38-.329l.132-.137a1.5,1.5,0,0,1,.192-.184,1.566,1.566,0,0,1,.589-.111l2.919-.12c1.216-.034,2.492-.055,3.794-.06l.3-.051v-.6h-.3c-1.28-.055-2.586-.094-3.815-.115h-3.068a1.9,1.9,0,0,0-.977.239,2.419,2.419,0,0,0-.324.273l-.111.107a2.082,2.082,0,0,1-.269.222,1.524,1.524,0,0,1-.67.179,2.987,2.987,0,0,1-1.558-.354.777.777,0,0,1-.5-.585,2.36,2.36,0,0,1,.755-1.856Z" transform="translate(-65.272 -116.47)" fill="#085553"/><path d="M225.486,82.662a9.922,9.922,0,0,0-2.62-2.351,22.145,22.145,0,0,0-2.987-1.558,21.311,21.311,0,0,0-3.184-1.144,14.975,14.975,0,0,0-3.384-.474,12.269,12.269,0,0,0-3.414.256,13.5,13.5,0,0,0-1.707.525,14.476,14.476,0,0,0-1.541.666,6.235,6.235,0,0,0-2.445,2.561c-.166.294-.32.593-.465.888a7.6,7.6,0,0,1-1.135,1.861,8.638,8.638,0,0,1-2.42,1.92,6.574,6.574,0,0,1-.7.32,2.245,2.245,0,0,1-.666.166,7,7,0,0,1-1.541-.051c-.465-.055-.969-.141-1.588-.269l-.606-.132c-.329-.077-.666-.154-1.033-.2l-.35-.047v.743l.248.051c.38.077.768.171,1.157.265.67.162,1.361.329,2.061.427a7.951,7.951,0,0,0,1.707.094,2.987,2.987,0,0,0,.918-.2,7.33,7.33,0,0,0,.8-.346,9.517,9.517,0,0,0,2.74-2.07,6.935,6.935,0,0,0,1.02-1.451c.1-.188.2-.376.3-.563.158-.294.307-.585.478-.854a5.121,5.121,0,0,1,2.048-2.087,13.584,13.584,0,0,1,1.442-.6,12.3,12.3,0,0,1,1.506-.427,11.036,11.036,0,0,1,3.094-.162,14.536,14.536,0,0,1,3.1.491,20.266,20.266,0,0,1,2.97,1.114,21.284,21.284,0,0,1,2.8,1.5,8.454,8.454,0,0,1,2.206,2.04,7.729,7.729,0,0,1,1.242,2.7,17.944,17.944,0,0,1,.175,6.235,15.713,15.713,0,0,1-1.916,5.889,20.407,20.407,0,0,1-3.841,4.929,19.776,19.776,0,0,1-5.087,3.576c-.226.107-.457.2-.679.29l-.785.282a12.52,12.52,0,0,0-1.6.76,24.555,24.555,0,0,0-2.864,1.848,48.569,48.569,0,0,0-5.1,4.349,27.246,27.246,0,0,0-2.287,2.522l-.051.068q-.111.141-.218.294l-.23.329a5.523,5.523,0,0,1-.427.533c-.3.32-.657.657-1.118,1.063-.64.555-1.327,1.1-2,1.63l-.516.427a25.794,25.794,0,0,0-2.561,2.236l-.051.06a4.477,4.477,0,0,0-1.05,1.575,3.088,3.088,0,0,0-.115.7.886.886,0,0,1-.026.252l-.085.807a9.325,9.325,0,0,1-.743,2.949,6.227,6.227,0,0,1-.363.64,1.609,1.609,0,0,1-.4.465,2.228,2.228,0,0,1-1.25.333,9.3,9.3,0,0,1-3.056-.563l-.273-.09-.277.67.273.124a9.483,9.483,0,0,0,3.324.854h.222a3.145,3.145,0,0,0,1.66-.427,2.731,2.731,0,0,0,.738-.713,6.827,6.827,0,0,0,.5-.755,10.174,10.174,0,0,0,1.041-3.333l.128-.811a2.464,2.464,0,0,1,.034-.248,2.174,2.174,0,0,1,.081-.405,3.218,3.218,0,0,1,.8-1.007,36.5,36.5,0,0,1,2.953-2.334c.717-.529,1.46-1.08,2.176-1.66a15.97,15.97,0,0,0,1.28-1.161,8.081,8.081,0,0,0,.619-.713l.469-.627a25.3,25.3,0,0,1,2.176-2.279,49.246,49.246,0,0,1,4.912-4.123,28.666,28.666,0,0,1,2.642-1.707,11.3,11.3,0,0,1,1.344-.661l.772-.286q.427-.166.819-.358a21.423,21.423,0,0,0,5.548-4.033,22.345,22.345,0,0,0,4.084-5.45,17.617,17.617,0,0,0,2.01-6.542,19.416,19.416,0,0,0-.32-6.8A9.154,9.154,0,0,0,225.486,82.662Z" transform="translate(-107.057 -44.23)" fill="#085553"/><path d="M108.188,316.672q-1.331-.7-2.561-1.511t-2.433-1.677q-.918-.7-1.741-1.447a19.364,19.364,0,0,1-1.558-1.575l-1.929,1.946c-.824.8-1.681,1.57-2.561,2.317-.367.329-.819.708-1.353,1.139s-1.11.854-1.707,1.3-1.28.888-1.95,1.344-1.366.854-2.04,1.221a16.219,16.219,0,0,1-2.8,1.306,7.1,7.1,0,0,1-2.561.427,3.156,3.156,0,0,1-2.134-.721,2.1,2.1,0,0,1-.525-1.707,5.492,5.492,0,0,1,.551-2.006,19.783,19.783,0,0,1,1.191-2.194q.691-1.1,1.421-2.048c.491-.636.888-1.144,1.195-1.532l.273-.329q1.191-1.489,2.454-2.987t2.59-2.962q2.612-2.893,5.228-5.71l.09-1.075c.03-.358.077-.717.137-1.075.154-.828.337-1.639.551-2.441a20.418,20.418,0,0,1,1.536-3.5,23.276,23.276,0,0,1,2.317-3.457,22.137,22.137,0,0,1,2.612-2.753,14.938,14.938,0,0,1,3.026-2.091c.213-.107.452-.218.713-.329a3.939,3.939,0,0,1,.854-.248,3.346,3.346,0,0,1,1.558-.128,3.145,3.145,0,0,1,.781.273,1.43,1.43,0,0,1,.593.6.93.93,0,0,1,.23.457,1.993,1.993,0,0,1-.388,1.366A18.27,18.27,0,0,1,108.406,287q-.918,1.2-2.108,2.586c-.794.926-1.583,1.822-2.36,2.689s-1.524,1.677-2.223,2.424-1.28,1.336-1.707,1.78l-.551.576-1.6,1.707-.96,1.033a11.411,11.411,0,0,0,.226,2.317,13.723,13.723,0,0,0,.644,2.194,15.819,15.819,0,0,0,2.2,3.841l1.929-2.134q.593-.7,1.169-1.408c.38-.469.755-.935,1.122-1.408a1.156,1.156,0,0,1,.5-.329,1.08,1.08,0,0,1,.64.124.9.9,0,0,1,.324.5.521.521,0,0,1-.141.538q-.6.7-1.169,1.451t-1.212,1.447l-2.134,2.441a16.718,16.718,0,0,0,1.558,1.553q.828.726,1.741,1.425a45.868,45.868,0,0,0,4.771,3.107h.043a.691.691,0,0,1,.324.452.542.542,0,0,1-.094.538.807.807,0,0,1-.5.333.73.73,0,0,1-.644-.1Zm-9.35-7.37a18.352,18.352,0,0,1-2.561-4.3,13.1,13.1,0,0,1-.918-3.6q-1.148,1.2-2.292,2.441t-2.249,2.479q-1.331,1.536-2.633,3.064t-2.5,3.064c0,.026-.03.068-.094.124-.184.248-.427.572-.73.969s-.627.854-.964,1.349-.657,1.007-.964,1.528a11.368,11.368,0,0,0-.743,1.506,3.841,3.841,0,0,0-.273,1.28.674.674,0,0,0,.5.7,3.491,3.491,0,0,0,1.95-.064,11.882,11.882,0,0,0,2.5-1.011,22.057,22.057,0,0,0,2.2-1.242q1.1-.7,2.087-1.43c.657-.482,1.25-.939,1.788-1.366s.986-.79,1.353-1.1c.427-.384.854-.772,1.28-1.157s.854-.772,1.28-1.161q1.011-1.041,1.98-2.083Zm-14.032,1.8-.137.162c-.064.055-.034,0,.09-.145S84.879,310.945,84.806,311.1ZM97.14,297.233l2.475-2.646.6-.623,1.374-1.447c.551-.58,1.122-1.2,1.707-1.865l1.814-2.006q.918-1.011,1.647-1.946c.491-.619.9-1.186,1.238-1.707a4.007,4.007,0,0,0,.6-1.182v-.026a.887.887,0,0,0-.687-.209,3.45,3.45,0,0,0-.666.166c-.23.081-.452.166-.666.247l-.32.166a12.645,12.645,0,0,0-2.637,1.822,22.044,22.044,0,0,0-2.36,2.441,27.249,27.249,0,0,0-2.134,3.167,17.388,17.388,0,0,0-1.442,3.162,8.961,8.961,0,0,0-.367,1.118q-.132.538-.23,1.075a1.28,1.28,0,0,1-.021.23.755.755,0,0,0-.026.183Z" transform="translate(-46.054 -161.76)" fill="#085553" stroke="#085553" stroke-miterlimit="10" stroke-width="1"/><path d="M186.169,354.35l-.119-.23.051.23Z" transform="translate(-106.661 -203.023)" fill="#085553" stroke="#085553" stroke-miterlimit="10" stroke-width="1"/><path d="M234.829,326.3a2.032,2.032,0,0,0,.755-.154c.725-.243,1.088-.636,1.088-1.174-.077-.482-.316-.721-.713-.721a2.087,2.087,0,0,0-.491.051c-1.114.218-1.669.593-1.669,1.135C233.8,325.888,234.141,326.174,234.829,326.3Z" transform="translate(-134.033 -185.9)" fill="#085553" stroke="#085553" stroke-miterlimit="10" stroke-width="1"/><path d="M268.942,318.339a30.947,30.947,0,0,0-3.841.854q-2.957,1.071-2.987,1.071l-.457-.192v.149a5.886,5.886,0,0,0-.7-.755,4.931,4.931,0,0,0,1.472-2.876c0-1.165-.807-1.831-2.428-2a2.441,2.441,0,0,0-1.831.854,2.987,2.987,0,0,0-.7,1.763h0a1.014,1.014,0,0,0,0,.12,4.633,4.633,0,0,0,1.25,2.066,12.689,12.689,0,0,1-8.36,3.273h-.427c-1.95-.026-3.179-.606-3.674-1.741v-.073a8.4,8.4,0,0,1,1.05-2.044q2.731-6.85,2.731-8.864h0q.128-.9.294-2.744c0-.23,0-.346-.047-.346,0-.854-.474-1.255-1.413-1.255a3.133,3.133,0,0,0-.653.1,6.316,6.316,0,0,0-1.754,2.07L245,310.41a16.276,16.276,0,0,0-1.472,6.15,1.878,1.878,0,0,0,.034.282l-1.28-.29-1.195-.051a8.4,8.4,0,0,0-4.118,1.336c-.213.188-.405.376-.589.563a1.707,1.707,0,0,0-.674.674.782.782,0,0,1-.047.154,5.279,5.279,0,0,0-.807,1.425,17.188,17.188,0,0,1-1.515,1.741,6.531,6.531,0,0,1-4.353,1.908h-.047a2.671,2.671,0,0,1-1.775-.551c-.358-.064-.9-1.148-1.634-3.239a2.452,2.452,0,0,0-2.475-1.886h-.158a4.281,4.281,0,0,0-3.081,1.511c-.717.815-1.225,1.378-1.532,1.707q.4-1.524.734-2.415a2.045,2.045,0,0,0,.354-.615.854.854,0,0,0-.772-.6h-.047c-.358,0-.73.3-1.118.909a12.746,12.746,0,0,1-8.535,3.414h-.427a5.705,5.705,0,0,1-2.475-.5,3.166,3.166,0,0,1-1.532-1.925v-.038c0-.034.026-.064.073-.094a37.627,37.627,0,0,0,3.619-1.063q2.45-1.374,2.71-2.676c0-.615-.576-.986-1.707-1.122h-.209a4,4,0,0,0-1.588.376,8.145,8.145,0,0,0-3.209,1.865,8.925,8.925,0,0,0-1.2,1.929c-.363.333-.713.64-1.046.918a1.485,1.485,0,0,0-.721.533q-3.9,3.03-6.03,3.03-.781,0-.781-.427a3.935,3.935,0,0,1,.734-2.07,4.919,4.919,0,0,0,1.131-1.984V319c0-.35-.243-.572-.734-.661h-.081c-.341,0-.512.043-.512.081a.545.545,0,0,0-.085.119c-.427.09-.879.542-1.306,1.37a23.168,23.168,0,0,1-3.3,3.82,6.023,6.023,0,0,1-3.073,1.319h-.184a.781.781,0,0,1-.341-.073q-1.088-.427-1.2-2.181a11.728,11.728,0,0,1,1.553-4.609,15.663,15.663,0,0,0,1.25-1.733c0-.376-.23-.6-.691-.666H187.1a41.527,41.527,0,0,1-4.507,1.63,4.323,4.323,0,0,0-1.331.627s-.61.388-.828.5a4.314,4.314,0,0,1-2.134.619h-.93q-5.211-.333-5.211-.789a3.252,3.252,0,0,1,.854-1.733,23.646,23.646,0,0,0,2.347-1.579q2.45-2.2,2.454-2.736a3.692,3.692,0,0,0,.888-2.514v-.2q0-1.229-1.088-1.229h-.337q-1.2,0-2.561,1.908a25.482,25.482,0,0,0-3.213,5.386,2.825,2.825,0,0,1-1.669,1.118c-.909.269-1.366.589-1.366.96.218.252.393.376.525.376h.094a5.749,5.749,0,0,0,1.43-.307,14.374,14.374,0,0,1-.67,2.381,39.266,39.266,0,0,0-1.1,6.871v.119a2.079,2.079,0,0,0,.047.427,4.08,4.08,0,0,0-.188,1.105v.367a14.231,14.231,0,0,0,.337,2.074q1.029,3.768,3.269,3.768a2.856,2.856,0,0,1,.4-.038,4.1,4.1,0,0,0,2.428-1.989,14.161,14.161,0,0,0,1.016-4.221v-.243c0-.555-.03-1.28-.094-2.134h0l-.055-.247v-.282a22.343,22.343,0,0,0-1.11-4.135,13.358,13.358,0,0,1-.93-1.541h.047c1.891.162,3.269.243,4.144.243a6.129,6.129,0,0,0,.854-.038,7.673,7.673,0,0,0,3.538-1.31h0a4.187,4.187,0,0,1,.973-.5,8.133,8.133,0,0,1,1.891-.538v.021l-.3.854a8.838,8.838,0,0,0-1.144,4.1,3.414,3.414,0,0,0,.265,1.528,3.356,3.356,0,0,0,2.919,1.925h.073a7.725,7.725,0,0,0,2.509-.606,13.064,13.064,0,0,0,3.175-2.471h0q0,1.839,2.253,1.835,2.945,0,7.255-3.414a8.267,8.267,0,0,0,.854-.589.154.154,0,0,0,.107.064,7.681,7.681,0,0,0,1.984,1.912,11.642,11.642,0,0,0,3.124.653c.683-.051,1.1-.081,1.246-.081a17.389,17.389,0,0,0,5.757-1.447c.512-.329.964-.632,1.378-.922-.363,1.105-.726,2.339-1.088,3.709.1.469.358.708.772.708h.094a1.246,1.246,0,0,0,.734-.376q2.876-3.546,3.551-4.216a3.054,3.054,0,0,1,2.159-1.28h.222a.785.785,0,0,1,.478.222,29.912,29.912,0,0,1,1.216,3.009,3.907,3.907,0,0,0,3.969,2.441,10.149,10.149,0,0,0,2.684-.5,7.011,7.011,0,0,0,2.987-1.775c.128-.124.243-.243.363-.367a4.3,4.3,0,0,0,4.31,2.415,3.96,3.96,0,0,0,1.588-.213,7.643,7.643,0,0,0,4.413-2.531c.166-.171.239-.294.209-.363a5.92,5.92,0,0,0,1.425,1.058,11.949,11.949,0,0,0,3.021.632c.687-.055,1.1-.081,1.25-.081a17.41,17.41,0,0,0,5.757-1.451,24.555,24.555,0,0,0,2.834-2.031,3.985,3.985,0,0,1,.734.789v.038c0,.055-.073.141-.222.256q-3.79,2.842-3.794,5.014c0,.781.551,1.378,1.652,1.8a2.559,2.559,0,0,1,.6.03c.282-.034.324,0,.128.073v.043l.457-.192a5.241,5.241,0,0,0,2.778-1.033,4.534,4.534,0,0,0,1.758-2.821c-.047.038-.051-.094,0-.427l-.021-.03.038-.068-.085-.4-.687-1.9a16.9,16.9,0,0,1,5.121-1.707,1.566,1.566,0,0,0,1.425-.67.755.755,0,0,0-.657-.8Zm-93.2-6.926a6.09,6.09,0,0,1,1.383-1.673h0a4.988,4.988,0,0,1-1.447,3.09,10.9,10.9,0,0,1-2.07,1.865A26.1,26.1,0,0,1,175.742,311.412Zm-1.353,15.133c.03.755.047,1.25.047,1.481s0,.7-.047,1.438a1.165,1.165,0,0,0-.047.427h0a8.489,8.489,0,0,1-.585,2.317q-.909,1.442-1.438,1.438h-.175q-.3,0-1.063-1.28a13.043,13.043,0,0,1-.854-3.047h.081c-.055-.427-.081-.734-.081-.854v-.192l.068-.751h0a7.592,7.592,0,0,0,.085-1.28q.854-6.436,1.1-6.44c.636.324,1.353,1.332,2.134,3.039a13.936,13.936,0,0,1,.738,3.26h0a1.182,1.182,0,0,0,.038.444ZM208.863,316.3h.107c.085,0,.128.021.128.068,0,.243-.589.751-1.775,1.519a9.388,9.388,0,0,1-2.394.734,2.134,2.134,0,0,1,.469-.606,6.5,6.5,0,0,1,3.465-1.733Zm35.157,5.356a7.21,7.21,0,0,1-4.963,2.522,5.546,5.546,0,0,1-.713-.068c-1.408-.448-2.112-1.242-2.112-2.39a2.323,2.323,0,0,1,.051-.427,8.894,8.894,0,0,0,1.02-1.707,5.625,5.625,0,0,1,4.383-1.792,2.091,2.091,0,0,1,1.105.273c.593.06.888.094.888.1a15.886,15.886,0,0,0,.7,2.693,2.267,2.267,0,0,1-.358.777Zm1.4-2.582s-.107-.738-.269-2.219c.094-1.054.141-1.707.141-1.955h0a16.691,16.691,0,0,1,1.336-4.349,14.691,14.691,0,0,1,2.091-3.457.192.192,0,0,0,0,.094l-.235,3.461a42.156,42.156,0,0,1-2.778,7.882c-.128.346-.222.525-.286.525Zm13.656-2.134c.2-.661.5-.99.9-.99.568.09.854.273.854.555a3.5,3.5,0,0,1-.909,1.848.5.5,0,0,0-.132.034,2.236,2.236,0,0,1-.713-1.353Zm2.428,8.8a4.43,4.43,0,0,1-2.859,1.327.5.5,0,0,1-.546-.457v-.3a2.352,2.352,0,0,1,.64-1.588,8.753,8.753,0,0,1,2.731-2.373c.243,0,.448.478.619,1.43a2.987,2.987,0,0,1-.572,1.95Z" transform="translate(-96.584 -175.21)" fill="#085553" stroke="#085553" stroke-miterlimit="10" stroke-width="1"/><path d="M392.032,348.4l-.094-.171-.009.013.03.158Z" transform="translate(-224.68 -199.647)" fill="#085553" stroke="#085553" stroke-miterlimit="10" stroke-width="1"/><path d="M378.473,358.671v-.051h0Q378.4,358.633,378.473,358.671Z" transform="translate(-216.945 -205.603)" fill="#085553" stroke="#085553" stroke-miterlimit="10" stroke-width="1"/><path d="M392,349.34v.055a.187.187,0,0,0,.038-.055Z" transform="translate(-224.72 -200.283)" fill="#085553" stroke="#085553" stroke-miterlimit="10" stroke-width="1"/><path d="M179.5,251.067c-.969-.137-1.455-.461-1.536-1.02l-.077-.3c0-1.28-.081-2.59-.081-3.888h.081c0-.832-.081-1.707,0-2.561.243-2.915.162-5.834.162-8.749,0-3.056.162-6.064,0-9.077-.081-1.852-.162-3.7-.162-5.548v-.09c0-.7.162-.926,1.374-1.067l3.414-.427a14.879,14.879,0,0,1,2.505,0,23.3,23.3,0,0,1,8.732,2.036,21.439,21.439,0,0,1,2.428,1.28,7.416,7.416,0,0,1,3.879,4.268,7.2,7.2,0,0,1-.405,5.185,14.046,14.046,0,0,1-5.01,5.463,22.811,22.811,0,0,1-4.127,2.134c-1.05.371-2.019.854-2.987,1.2a18.5,18.5,0,0,1-1.856.512c-.405.09-.568.184-.568.427a10.84,10.84,0,0,1-.081,1.622,26.065,26.065,0,0,0-.162,4.353,22.189,22.189,0,0,0,.162,2.313c.081,1.067-.644,1.391-2.023,1.707a9.525,9.525,0,0,1-2.829.277A4.652,4.652,0,0,1,179.5,251.067Zm6.226-13.981c.563-.324,1.131-.649,1.78-.973a13.307,13.307,0,0,0,3.068-2.561,10.672,10.672,0,0,0,2.59-5,6.559,6.559,0,0,0-.568-3.888c-.969-1.946-3.414-3.243-6.308-4.212a2.359,2.359,0,0,0-.807-.094c-.243,0-.427.094-.427.23s.081.427.081.649l.243,5.049v10.742c0,.047.081.09.081.09A.491.491,0,0,0,185.731,237.087Z" transform="translate(-101.938 -125.158)" fill="#085553"/><path d="M244.433,251.949c-2.834-.6-4.447-1.805-5.177-3.414a6.973,6.973,0,0,1-.649-3.1v-9.786h.081c0-1.28-.081-2.59,0-3.888,0-2.134.081-4.268.162-6.436.081-1.02.081-2.04.243-3.1a3.44,3.44,0,0,1,.568-1.669c.324-.427.807-.691,1.938-.649a2.39,2.39,0,0,1,.568.094,14.271,14.271,0,0,0,2.829.094,24.753,24.753,0,0,1,3.721.047c1.455.09,2.829.23,4.268.23a4.762,4.762,0,0,1,2.1.427,1.2,1.2,0,0,1,.487.324c.324.367.081.738-.644.832-.568.047-1.135.094-1.78.094-1.861.043-3.721.043-5.582.043-.4,0-.726.047-1.131.047s-.482.141-.482.324a14.725,14.725,0,0,1-.081,3.751c-.243,2.919,0,5.787-.081,8.706v.23c0,.137.162.23.4.23a5.186,5.186,0,0,0,.892-.047c1.28,0,2.505-.047,3.8-.047a7.741,7.741,0,0,1,3.316.743,2.309,2.309,0,0,1,.649.371c.32.324.081.649-.568.7l-2.023.137c-1.937.141-3.879.277-5.821.465-.482.043-.563.09-.563.367,0,.926.081,1.852.081,2.778v5.189a5.4,5.4,0,0,0,.644,2.454,4.507,4.507,0,0,0,4.366,1.895c1.374-.09,2.829-.184,4.2-.324l1.455-.137a11.686,11.686,0,0,1,2.266-.23,5.219,5.219,0,0,1,1.536.277c.644.23.725.555.243.832a4.268,4.268,0,0,1-1.135.461,17.952,17.952,0,0,1-2.829.559,56.061,56.061,0,0,1-8.407.555A20.616,20.616,0,0,1,244.433,251.949Z" transform="translate(-136.788 -126.083)" fill="#085553"/><path d="M301.357,250.676a.918.918,0,0,1-.725-.512,1.421,1.421,0,0,1-.162-.555c0-1.063-.162-2.176-.243-3.286-.081-1.438-.243-2.919-.243-4.4,0-1.28.243-2.561.243-3.841,0-4.123.081-8.245.081-12.376,0-1.28.162-2.595.162-3.841v-.277c0-.427-.081-.371-.888-.427-1.46-.094-2.987-.047-4.528-.047a10.793,10.793,0,0,1-2.753-.371,3.5,3.5,0,0,1-.807-.324c-.649-.371-.487-.649.243-.832a8.534,8.534,0,0,1,1.212-.188c2.181-.23,4.366-.183,6.632-.23,2.1-.047,4.268-.184,6.4-.184h.858c1.707,0,3.393-.047,5.172.047a16.31,16.31,0,0,1,3.073.461,3.111,3.111,0,0,1,.969.427c.487.277.405.649-.243.785a3.012,3.012,0,0,1-.644.094h-.888c-2.023,0-4.046-.094-6.064.094-.568.043-.649.043-.649.427v8.108h-.081v7.592a31.477,31.477,0,0,1-.243,3.935c-.081.854,0,1.669,0,2.5,0,.23.081.427.081.6a43.612,43.612,0,0,0,.243,4.63c.081.7-.405,1.114-1.374,1.481a10.413,10.413,0,0,1-3.64.649,5.615,5.615,0,0,1-1.195-.141Z" transform="translate(-166.873 -125.552)" fill="#085553"/><path d="M359.672,251.121a20.913,20.913,0,0,1-4.041-.691,4.621,4.621,0,0,1-1.707-.879c-.644-.512-.563-.883.243-1.28a8.638,8.638,0,0,1,3.721-.854,3.841,3.841,0,0,1,1.617.371,8.868,8.868,0,0,0,3.231,1.2,4.059,4.059,0,0,0,2.428-.277,5.192,5.192,0,0,0,2.586-2.266,1.336,1.336,0,0,0-.487-1.622,6.922,6.922,0,0,0-1.78-1.067c-1.374-.555-2.829-1.063-4.2-1.617-.726-.277-1.455-.512-2.1-.79-2.987-1.28-5.1-2.915-5.9-5a22.238,22.238,0,0,1-.973-3.2,8.335,8.335,0,0,1-.081-1.993,11.32,11.32,0,0,1,3.478-8.053,12.108,12.108,0,0,1,2.829-2.27,13.435,13.435,0,0,1,3.414-1.344,15.449,15.449,0,0,1,4.852-.324c.969.047,1.938.188,2.911.324a11.471,11.471,0,0,1,3.231.926,3.287,3.287,0,0,1,2.1,2.134,5.507,5.507,0,0,1-.081,3.29c-.162,1.016-.487,2.083-.725,3.1-.243.738-.568,1.528-.892,2.313a3.841,3.841,0,0,1-.644,1.067,2.373,2.373,0,0,1-1.135.644,7.5,7.5,0,0,1-4.268-.043c-.888-.235-1.455-.6-1.28-1.25a15.789,15.789,0,0,0,.568-1.993l.726-2.684.487-2.083a7.026,7.026,0,0,0,.162-2.595.137.137,0,0,0-.081-.141c-.324-.922-.243-.969-1.707-.427a8.428,8.428,0,0,0-2.586,1.622,11.151,11.151,0,0,0-3.721,6.064,21.8,21.8,0,0,0-.32,2.176,9.965,9.965,0,0,0,1.212,4.724,6.806,6.806,0,0,0,4.2,3.414c1.374.512,2.748,1.02,4.123,1.481.973.371,1.861.7,2.748,1.067a5.121,5.121,0,0,1,2.185,1.528,2.24,2.24,0,0,1,.644,1.758,4.438,4.438,0,0,1-2.343,3.056,13.656,13.656,0,0,1-4.771,1.852,42.5,42.5,0,0,1-5.975.7A17.342,17.342,0,0,1,359.672,251.121Z" transform="translate(-201.904 -125.63)" fill="#085553"/></g></g></svg>